<?xml version="1.0" encoding="UTF-8"?>
<svg version="1.1" xmlns="http://www.w3.org/2000/svg" width="500" height="500">
<path d="M0 0 C3.9777481 3.1344655 7.33871017 6.69991737 10.67578125 10.5 C12.77280393 12.55623954 12.77280393 12.55623954 15.42578125 12.375 C18.61581059 11.01637596 20.23309063 9.25365584 22.5546875 6.68359375 C35.66032278 -6.86662798 52.92744891 -12.49828493 71.4921875 -13.06640625 C85.31180919 -13.05316272 99.28765989 -9.09007668 111.9296875 -3.69140625 C112.82429687 -3.31113281 113.71890625 -2.93085938 114.640625 -2.5390625 C117.99905782 0.17175443 118.63804618 3.23956147 119.7421875 7.30859375 C119.95810547 8.03304688 120.17402344 8.7575 120.39648438 9.50390625 C121.27334596 12.52142357 121.9296875 15.15272246 121.9296875 18.30859375 C121.39529053 18.12756104 120.86089355 17.94652832 120.31030273 17.76000977 C114.56495037 15.82751037 108.79422052 14.00061418 102.9921875 12.24609375 C102.16267578 11.99021484 101.33316406 11.73433594 100.47851562 11.47070312 C79.1450247 5.02258504 56.94858769 3.25877757 36.55078125 13.61328125 C33.77838371 15.19077496 33.77838371 15.19077496 31.953125 17.95703125 C26.91412797 21.87625116 21.30827554 21.10936638 15.1171875 21.05859375 C13.24836914 21.11273438 13.24836914 21.11273438 11.34179688 21.16796875 C5.27923346 21.16796875 1.03017575 21.11285968 -3.59765625 16.9375 C-4.20246826 16.30440918 -4.80728027 15.67131836 -5.43041992 15.01904297 C-12.85737076 7.27254638 -27.03060087 6.30299638 -37.1328125 5.99609375 C-56.27479046 6.38349092 -74.09849911 12.26980748 -92.0703125 18.30859375 C-91.50647358 14.94593011 -90.83117292 11.63282917 -90.0703125 8.30859375 C-89.895 7.42429687 -89.7196875 6.54 -89.5390625 5.62890625 C-88.32284874 1.27962009 -87.10905304 -1.01911029 -83.2578125 -3.51171875 C-56.45699989 -15.63299536 -24.92539335 -17.12406893 0 0 Z " fill="#232527" transform="translate(235.0703125,298.69140625)"/>
<path d="M0 0 C0.99 0.33 1.98 0.66 3 1 C3.52269086 3.0550777 4.03527834 5.11352445 4.48388672 7.18603516 C6.13266469 14.77023446 6.13266469 14.77023446 11.03759766 20.43701172 C16.14225799 22.7984591 21.48780433 23.99463098 27 25 C27 25.99 27 26.98 27 28 C22.12733972 30.22447534 17.30778699 31.85225376 12.13671875 33.25390625 C9.82167141 33.88867792 9.82167141 33.88867792 8 36 C7.1756683 37.9216712 7.1756683 37.9216712 6.4921875 40.1328125 C6.22792969 40.93847656 5.96367187 41.74414062 5.69140625 42.57421875 C5.42199219 43.41597656 5.15257812 44.25773437 4.875 45.125 C4.45927734 46.39923828 4.45927734 46.39923828 4.03515625 47.69921875 C3.3513532 49.79778673 2.67321723 51.89801696 2 54 C1.34 54 0.68 54 0 54 C-0.17539307 53.44014404 -0.35078613 52.88028809 -0.53149414 52.3034668 C-1.34735471 49.75492663 -2.20422802 47.22205584 -3.0625 44.6875 C-3.47532227 43.36588867 -3.47532227 43.36588867 -3.89648438 42.01757812 C-5.79613878 36.5213531 -5.79613878 36.5213531 -10.34375 33.03125 C-11.5503125 32.6909375 -12.756875 32.350625 -14 32 C-15.09183594 31.61457031 -16.18367187 31.22914063 -17.30859375 30.83203125 C-18.85740234 30.32736328 -18.85740234 30.32736328 -20.4375 29.8125 C-21.48808594 29.46832031 -22.53867188 29.12414062 -23.62109375 28.76953125 C-24.79865234 28.38861328 -24.79865234 28.38861328 -26 28 C-25.505 26.515 -25.505 26.515 -25 25 C-22.94501739 24.47733333 -20.8866585 23.96478468 -18.81420898 23.51635742 C-11.23891273 21.87244922 -11.23891273 21.87244922 -5.57910156 16.97851562 C-3.23490716 11.86274406 -2.11616085 6.49106268 -1 1 C-0.67 0.67 -0.34 0.34 0 0 Z " fill="#242729" transform="translate(249,199)"/>
<path d="M0 0 C8.79649368 3.90955275 15.2588217 10.31685833 22 17 C22.76828125 17.75539063 23.5365625 18.51078125 24.328125 19.2890625 C31.75670428 27.09784466 38.10952386 37.59428589 41 48 C40.55859375 50.2109375 40.55859375 50.2109375 40 52 C39.278125 51.05125 38.55625 50.1025 37.8125 49.125 C25.98721491 35.48467115 8.56249503 27.35055204 -8 21 C-7.42460686 15.79714932 -5.70581107 11.76043964 -3.4375 7.125 C-3.10814453 6.43664062 -2.77878906 5.74828125 -2.43945312 5.0390625 C-1.63304639 3.3561267 -0.81745506 1.67759707 0 0 Z " fill="#232628" transform="translate(202,239)"/>
<path d="M0 0 C3.4967383 1.74836915 4.25687519 5.82338097 5.6875 9.3125 C6.02072266 10.08529297 6.35394531 10.85808594 6.69726562 11.65429688 C7.16229492 12.77868164 7.16229492 12.77868164 7.63671875 13.92578125 C7.92248779 14.61067627 8.20825684 15.29557129 8.50268555 16.0012207 C9.10435277 18.41940899 8.97267641 19.71061471 8 22 C5.57913041 23.10842331 3.33422625 23.95062642 0.8125 24.75 C-14.34103727 30.01289499 -27.91876022 38.31714995 -38 51 C-38.66 51 -39.32 51 -40 51 C-38.79877137 39.03332995 -31.96210217 28.71067588 -24 20 C-23.56026855 19.51789063 -23.12053711 19.03578125 -22.66748047 18.5390625 C-15.79066705 11.09292169 -8.71534679 5.25393246 0 0 Z " fill="#232527" transform="translate(297,239)"/>
<path d="M0 0 C2.747029 1.6482174 2.96928541 2.88659229 3.8125 6 C4 9 4 9 2 12 C2.78375 12.28875 3.5675 12.5775 4.375 12.875 C7 14 7 14 9 16 C9.77574531 18.97369037 10.31292376 21.0925211 9.296875 24.0390625 C6.7545022 27.88325269 2.09528101 29.18873524 -2 31 C-2.91652344 31.40992188 -3.83304688 31.81984375 -4.77734375 32.2421875 C-11.58123791 35.13958736 -11.58123791 35.13958736 -15 34 C-16.25854492 31.62329102 -16.25854492 31.62329102 -17.48046875 28.50390625 C-17.92197266 27.38822266 -18.36347656 26.27253906 -18.81835938 25.12304688 C-19.27017578 23.94806641 -19.72199219 22.77308594 -20.1875 21.5625 C-20.65091797 20.39138672 -21.11433594 19.22027344 -21.59179688 18.01367188 C-25 9.31497377 -25 9.31497377 -25 7 C-22.15126513 5.81830257 -19.29720953 4.65458265 -16.4375 3.5 C-15.63763672 3.16613281 -14.83777344 2.83226562 -14.01367188 2.48828125 C-9.17204346 0.55162988 -5.30823393 -0.50685072 0 0 Z M-13 10 C-12.67 11.32 -12.34 12.64 -12 14 C-10.35 13.67 -8.7 13.34 -7 13 C-7 11.68 -7 10.36 -7 9 C-10.05270463 8.84188612 -10.05270463 8.84188612 -13 10 Z M-9 19 C-8.67 20.65 -8.34 22.3 -8 24 C-5.97954558 23.39816251 -3.97888961 22.72693904 -2 22 C-1.67 21.34 -1.34 20.68 -1 20 C-1.33 19.34 -1.66 18.68 -2 18 C-5.89459074 17.78918149 -5.89459074 17.78918149 -9 19 Z " fill="#212325" transform="translate(220,150)"/>
<path d="M0 0 C1.9375 1.6875 1.9375 1.6875 3 4 C3.1875 6.75 3.1875 6.75 3 9 C3.66 8.67 4.32 8.34 5 8 C7.875 7.625 7.875 7.625 11 8 C13.4375 10.0625 13.4375 10.0625 15 13 C14.80831301 19.08974823 12.71468009 22.61463924 9.1875 27.3125 C8.52911133 28.2415918 8.52911133 28.2415918 7.85742188 29.18945312 C5.5019422 32.41292531 3.63388602 34.39773624 0 36 C-1.00160156 35.19175781 -2.00320312 34.38351563 -3.03515625 33.55078125 C-4.37752413 32.47125463 -5.71997657 31.39183316 -7.0625 30.3125 C-7.71927734 29.78205078 -8.37605469 29.25160156 -9.05273438 28.70507812 C-13.27186448 25.31730371 -17.56892521 22.10578584 -22 19 C-17.27635228 9.94634187 -11.38670898 -1.22000453 0 0 Z M-8 11 C-8.66 12.32 -9.32 13.64 -10 15 C-8.02 15.99 -8.02 15.99 -6 17 C-5.34 15.35 -4.68 13.7 -4 12 C-5.32 11.67 -6.64 11.34 -8 11 Z M1 16 C-0.485 18.475 -0.485 18.475 -2 21 C-0.02 21.99 -0.02 21.99 2 23 C3.56249809 21.68798827 3.56249809 21.68798827 5 20 C5 19.01 5 18.02 5 17 C3.68 16.67 2.36 16.34 1 16 Z " fill="#222528" transform="translate(171,183)"/>
<path d="M0 0 C6 15.42857143 6 15.42857143 6 21 C4.45808846 20.85677897 2.91648108 20.71028211 1.375 20.5625 C0.51648438 20.48128906 -0.34203125 20.40007812 -1.2265625 20.31640625 C-3.09458339 20.10329401 -4.95599872 19.82291389 -6.8046875 19.48046875 C-22.57911282 17.10851971 -37.61059476 19.88715246 -52.2578125 25.9140625 C-54.51293266 26.80711578 -56.63538033 27.49087136 -59 28 C-48.76000927 13.8447187 -30.04976833 6.94186204 -13.875 2.0625 C-13.17656982 1.85077148 -12.47813965 1.63904297 -11.75854492 1.42089844 C-7.74115386 0.27877055 -4.17092202 -0.21439319 0 0 Z " fill="#232527" transform="translate(326,262)"/>
<path d="M0 0 C19.70590808 0.70378243 39.91094037 10.71256401 55 23 C56.38411961 24.62473643 57.73532938 26.28065019 59 28 C55.2033797 27.38322053 52.1088102 26.23516438 48.625 24.625 C33.74209003 18.35564232 17.05769879 16.94855314 1.296875 20.5625 C-1.18265313 21.03479107 -3.4818224 21.07143766 -6 21 C-2.68831169 2.68831169 -2.68831169 2.68831169 0 0 Z " fill="#232527" transform="translate(174,262)"/>
<path d="M0 0 C5.6650621 5.13396252 13.32760839 12.38944127 13.8125 20.375 C12.6036884 25.76815947 9.84280304 27.62971056 5.5625 30.8125 C2.35291062 32.29987069 0.49918812 32.58319802 -3 32 C-6.53709595 29.12096841 -8.83345634 25.99100148 -11 22 C-12.98 23.32 -14.96 24.64 -17 26 C-18.98 23.36 -20.96 20.72 -23 18 C-15.55095104 11.6559583 -8.00346998 5.64024066 0 0 Z M-5 17 C-4.67 18.32 -4.34 19.64 -4 21 C-2.21858253 21.86358623 -2.21858253 21.86358623 0 22 C2.27144074 20.14567913 2.27144074 20.14567913 4 18 C3.34 16.35 2.68 14.7 2 13 C-1.13323425 13 -2.68020784 15.04649081 -5 17 Z " fill="#242528" transform="translate(335,180)"/>
<path d="M0 0 C2.35441716 0.14241648 4.70847484 0.28884808 7.0625 0.4375 C9.02896484 0.55931641 9.02896484 0.55931641 11.03515625 0.68359375 C21.52034261 1.52034261 21.52034261 1.52034261 23 3 C23.125 6 23.125 6 23 9 C22 10 22 10 20.07421875 10.1328125 C19.28660156 10.13023437 18.49898438 10.12765625 17.6875 10.125 C16.51767578 10.12886719 16.51767578 10.12886719 15.32421875 10.1328125 C13.08748461 10.00499912 11.14733021 9.61913869 9 9 C9 10.65 9 12.3 9 14 C10.5778125 13.9690625 10.5778125 13.9690625 12.1875 13.9375 C15.32704904 13.98896802 17.96883396 14.26517187 21 15 C20.625 17.9375 20.625 17.9375 20 21 C17.2780754 22.3609623 15.8168043 21.70366248 12.875 21.0625 C11.96492188 20.86785156 11.05484375 20.67320312 10.1171875 20.47265625 C9.41851562 20.31667969 8.71984375 20.16070312 8 20 C7.95101563 20.71027344 7.90203125 21.42054688 7.8515625 22.15234375 C7.77679688 23.07144531 7.70203125 23.99054688 7.625 24.9375 C7.55539062 25.85402344 7.48578125 26.77054688 7.4140625 27.71484375 C7.27742188 28.46894531 7.14078125 29.22304687 7 30 C3.64338305 31.67830848 0.63864406 30.6353188 -3 30 C-4.37242671 27.25514658 -3.84842534 25.48004998 -3.4765625 22.44140625 C-3.3425 21.33345703 -3.2084375 20.22550781 -3.0703125 19.08398438 C-2.92335937 17.92189453 -2.77640625 16.75980469 -2.625 15.5625 C-2.48578125 14.40427734 -2.3465625 13.24605469 -2.203125 12.05273438 C-1.13953773 3.41861319 -1.13953773 3.41861319 0 0 Z " fill="#24272A" transform="translate(253,144)"/>
<path d="M0 0 C3.7157043 0.56499065 6.72447281 1.11027278 10 3 C9.32512263 7.81919471 7.42034091 11.91883866 5.4375 16.3125 C5.10814453 17.05306641 4.77878906 17.79363281 4.43945312 18.55664062 C3.63082877 20.37311562 2.81602884 22.18683931 2 24 C3.16595703 24.21462891 3.16595703 24.21462891 4.35546875 24.43359375 C6.87786006 24.97384004 8.75804088 25.75446715 11 27 C10.45276317 30.37462715 9.9451 32.08235 8 35 C3.53202662 33.60121198 -0.63822079 31.86369228 -4.875 29.875 C-6.02742188 29.33617187 -7.17984375 28.79734375 -8.3671875 28.2421875 C-9.23601562 27.83226562 -10.10484375 27.42234375 -11 27 C-9.00667932 20.60703339 -6.58525386 14.52953606 -3.8125 8.4375 C-3.44447266 7.61958984 -3.07644531 6.80167969 -2.69726562 5.95898438 C-1.80204987 3.97090782 -0.9015835 1.98519692 0 0 Z " fill="#242628" transform="translate(288,151)"/>
<path d="M0 0 C4.41131066 4.18658351 8.14981675 8.76179371 11.875 13.5625 C12.48085937 14.31724609 13.08671875 15.07199219 13.7109375 15.84960938 C14.278125 16.58115234 14.8453125 17.31269531 15.4296875 18.06640625 C15.94772949 18.72584229 16.46577148 19.38527832 16.99951172 20.06469727 C18 22 18 22 17.88330078 24.10522461 C16.30255423 27.49609635 13.24315756 28.34893797 10 30 C8.10278804 27.48020165 6.20748998 24.95896967 4.3125 22.4375 C3.78205078 21.73302734 3.25160156 21.02855469 2.70507812 20.30273438 C1.1304333 18.20642808 -0.43653045 16.10465145 -2 14 C-2.49838379 13.33371582 -2.99676758 12.66743164 -3.51025391 11.98095703 C-7 7.23317901 -7 7.23317901 -7 5 C-5.46875 3.7109375 -5.46875 3.7109375 -3.5 2.375 C-2.8503125 1.92898437 -2.200625 1.48296875 -1.53125 1.0234375 C-1.0259375 0.68570313 -0.520625 0.34796875 0 0 Z " fill="#222425" transform="translate(183,165)"/>
<path d="M0 0 C2.64 1.98 5.28 3.96 8 6 C6.53049443 8.93901114 5.24764128 11.17401898 3.3203125 13.75 C2.80339844 14.4409375 2.28648437 15.131875 1.75390625 15.84375 C1.21636719 16.5553125 0.67882812 17.266875 0.125 18 C-0.66970703 19.06734375 -0.66970703 19.06734375 -1.48046875 20.15625 C-4.1288785 23.67870068 -6.75697186 26.9919739 -10 30 C-12.31 28.35 -14.62 26.7 -17 25 C-15.98157859 20.92631437 -14.92214946 19.26954734 -12.40234375 16.015625 C-11.68369141 15.08105469 -10.96503906 14.14648438 -10.22460938 13.18359375 C-9.46986328 12.21550781 -8.71511719 11.24742187 -7.9375 10.25 C-7.17888672 9.26644531 -6.42027344 8.28289062 -5.63867188 7.26953125 C-3.76485494 4.84181874 -1.88514699 2.41891823 0 0 Z " fill="#1D1C1A" transform="translate(317,165)"/>
<path d="M0 0 C0.33 0.99 0.66 1.98 1 3 C1.66 3 2.32 3 3 3 C3 3.66 3 4.32 3 5 C3.66 5 4.32 5 5 5 C6.36639342 6.6396721 7.6949419 8.31110128 9 10 C9.7425 10.598125 10.485 11.19625 11.25 11.8125 C13.4022772 14.5028465 13.64343054 16.62053947 13.43359375 20.03515625 C12.63232288 23.66614045 11.02412149 24.94359739 8 27 C4.7001408 28.09820155 1.48410587 28.89961051 -2 29 C-2.99 28.34 -3.98 27.68 -5 27 C-4.4375 24.6875 -4.4375 24.6875 -3 22 C-0.67518826 20.98034573 1.65794699 19.97940398 4 19 C4.88693303 16.95894361 4.88693303 16.95894361 5 15 C5.66 14.67 6.32 14.34 7 14 C6.38125 13.731875 5.7625 13.46375 5.125 13.1875 C3 12 3 12 1 9 C0.401875 9.33 -0.19625 9.66 -0.8125 10 C-3 11 -3 11 -6 11 C-5.7215625 10.1028125 -5.7215625 10.1028125 -5.4375 9.1875 C-4.77906313 6.83591238 -4.77906313 6.83591238 -6 4 C-4.02 2.68 -2.04 1.36 0 0 Z " fill="#24272A" transform="translate(335,182)"/>
<path d="M0 0 C0.33 0.66 0.66 1.32 1 2 C1.66 2 2.32 2 3 2 C3 2.66 3 3.32 3 4 C4.3921875 3.690625 4.3921875 3.690625 5.8125 3.375 C9 3 9 3 12 5 C7.25 7.875 7.25 7.875 5 9 C5 9.66 5 10.32 5 11 C5.66 11.33 6.32 11.66 7 12 C7 12.99 7 13.98 7 15 C8.48199902 14.55090939 9.96055236 14.09043436 11.4375 13.625 C12.26121094 13.36976563 13.08492187 13.11453125 13.93359375 12.8515625 C16.17798016 12.19117773 16.17798016 12.19117773 17 10 C17.66 10.66 18.32 11.32 19 12 C18.649375 11.21625 18.29875 10.4325 17.9375 9.625 C17.628125 8.75875 17.31875 7.8925 17 7 C17.33 6.34 17.66 5.68 18 5 C18.66 5 19.32 5 20 5 C20.39063507 6.43333021 20.76198474 7.87192679 21.125 9.3125 C21.33382812 10.11300781 21.54265625 10.91351563 21.7578125 11.73828125 C22 14 22 14 20 17 C17.9765625 17.66015625 17.9765625 17.66015625 15.625 18.0625 C12.40390506 18.62807687 9.8726424 19.41939083 7 21 C6.01 19.68 5.02 18.36 4 17 C0.88214887 17.64644661 0.88214887 17.64644661 0 20 C0 18.35 0 16.7 0 15 C-0.66 15 -1.32 15 -2 15 C-2.33 13.02 -2.66 11.04 -3 9 C-2.34 9 -1.68 9 -1 9 C-0.67 6.03 -0.34 3.06 0 0 Z " fill="#232629" transform="translate(205,160)"/>
<path d="M0 0 C2.747029 1.6482174 2.96928541 2.88659229 3.8125 6 C4 9 4 9 2 12 C2.78375 12.28875 3.5675 12.5775 4.375 12.875 C7 14 7 14 9 16 C9.81530283 19.1253275 10.25583628 21.21117147 9.25 24.3125 C8 26 8 26 5 27 C5.185625 26.319375 5.37125 25.63875 5.5625 24.9375 C6.08523943 21.42767809 5.61378577 18.47811937 5 15 C4.34 15 3.68 15 3 15 C3.2475 16.1446875 3.2475 16.1446875 3.5 17.3125 C4 20 4 20 4 23 C3.01 22.67 2.02 22.34 1 22 C0.01 22.495 -0.98 22.99 -2 23.5 C-2.99 23.995 -3.98 24.49 -5 25 C-5.99 24.67 -6.98 24.34 -8 24 C-6.02 23.01 -4.04 22.02 -2 21 C-2 20.01 -2 19.02 -2 18 C-4.31 18.33 -6.62 18.66 -9 19 C-9.33 19.99 -9.66 20.98 -10 22 C-10 20.68 -10 19.36 -10 18 C-8.02 17.01 -6.04 16.02 -4 15 C-4 14.34 -4 13.68 -4 13 C-3.195625 12.566875 -2.39125 12.13375 -1.5625 11.6875 C1.24282331 10.23212941 1.24282331 10.23212941 1.8125 7.3125 C1.9053125 6.1678125 1.9053125 6.1678125 2 5 C-1.58327753 3.99782936 -1.58327753 3.99782936 -5 5 C-5 4.34 -5 3.68 -5 3 C-8.3 3.66 -11.6 4.32 -15 5 C-15 4.34 -15 3.68 -15 3 C-9.79344062 0.80776447 -5.75463435 -0.67701581 0 0 Z " fill="#1C1B1A" transform="translate(220,150)"/>
<path d="M0 0 C0.66386719 0.43957031 1.32773437 0.87914062 2.01171875 1.33203125 C5.51385718 3.28681963 9.00270911 4.48076241 12.8125 5.6875 C13.50537109 5.91244141 14.19824219 6.13738281 14.91210938 6.36914062 C16.60629082 6.91828909 18.30290633 7.45991862 20 8 C20 8.99 20 9.98 20 11 C15.12733972 13.22447534 10.30778699 14.85225376 5.13671875 16.25390625 C2.82167141 16.88867792 2.82167141 16.88867792 1 19 C0.1756683 20.9216712 0.1756683 20.9216712 -0.5078125 23.1328125 C-0.90419922 24.34130859 -0.90419922 24.34130859 -1.30859375 25.57421875 C-1.57800781 26.41597656 -1.84742188 27.25773437 -2.125 28.125 C-2.40214844 28.97449219 -2.67929688 29.82398438 -2.96484375 30.69921875 C-3.6486468 32.79778673 -4.32678277 34.89801696 -5 37 C-5.66 37 -6.32 37 -7 37 C-8.00380916 34.20964954 -9.0031945 31.41785145 -10 28.625 C-10.28617188 27.8309375 -10.57234375 27.036875 -10.8671875 26.21875 C-11.13789063 25.45820313 -11.40859375 24.69765625 -11.6875 23.9140625 C-11.93886719 23.2123291 -12.19023437 22.5105957 -12.44921875 21.78759766 C-13 20 -13 20 -13 18 C-12.34 18 -11.68 18 -11 18 C-11 19.32 -11 20.64 -11 22 C-10.01 22.33 -9.02 22.66 -8 23 C-8 23.66 -8 24.32 -8 25 C-7.01 25.33 -6.02 25.66 -5 26 C-5.33 26.66 -5.66 27.32 -6 28 C-3.39538352 25.98734181 -2.93196243 24.7618685 -2 21.5 C-0.5944028 16.58040981 1.34036746 15.33526799 5.5625 12.8125 C9 11 9 11 11 11 C11.33 10.34 11.66 9.68 12 9 C10.02243256 7.02243256 6.75512309 6.62155459 4.12890625 5.81640625 C2 5 2 5 0 3 C0 2.01 0 1.02 0 0 Z M-8 28 C-7.67 28.66 -7.34 29.32 -7 30 C-6.67 29.34 -6.34 28.68 -6 28 C-6.66 28 -7.32 28 -8 28 Z " fill="#1D1A19" transform="translate(256,216)"/>
<path d="M0 0 C11.84538393 3.06346136 22.27205163 10.57021136 31 19 C28 20 28 20 25.6875 19.109375 C24.800625 18.66078125 23.91375 18.2121875 23 17.75 C11.6514974 12.34595114 0.52328175 10.82677535 -11.9375 10.9375 C-13.3925293 10.94426758 -13.3925293 10.94426758 -14.87695312 10.95117188 C-17.2513676 10.9628685 -19.62565021 10.97925914 -22 11 C-20 9 -20 9 -17.20263672 8.77294922 C-16.04006348 8.78342285 -14.87749023 8.79389648 -13.6796875 8.8046875 C-11.79443359 8.81435547 -11.79443359 8.81435547 -9.87109375 8.82421875 C-7.89302734 8.84935547 -7.89302734 8.84935547 -5.875 8.875 C-4.53516279 8.88503017 -3.19531848 8.89415596 -1.85546875 8.90234375 C1.42986573 8.92597925 4.71484465 8.95892766 8 9 C8.33 7.68 8.66 6.36 9 5 C6.03 4.01 3.06 3.02 0 2 C0 1.34 0 0.68 0 0 Z " fill="#1D1C19" transform="translate(202,270)"/>
<path d="M0 0 C0.66 0.99 1.32 1.98 2 3 C0.70700306 5.88437779 -0.65941363 7.87219421 -3 10 C-2.01 9.67 -1.02 9.34 0 9 C0 10.32 0 11.64 0 13 C-0.99 13.495 -0.99 13.495 -2 14 C-2.598125 15.134375 -3.19625 16.26875 -3.8125 17.4375 C-5.23739773 20.00231592 -5.89756579 20.93433704 -8.4375 22.5625 C-11.58309328 23.09955251 -13.1979087 22.44107552 -16 21 C-15.73911731 17.47808373 -14.75685408 16.78724732 -12 14.375 C-10.515 13.199375 -10.515 13.199375 -9 12 C-8.67 11.34 -8.34 10.68 -8 10 C-7.34 10 -6.68 10 -6 10 C-5.9071875 9.195625 -5.9071875 9.195625 -5.8125 8.375 C-4.61972618 4.88843038 -2.43802834 2.75059607 0 0 Z " fill="#232527" transform="translate(316,169)"/>
<path d="M0 0 C2.35441716 0.14241648 4.70847484 0.28884808 7.0625 0.4375 C9.02896484 0.55931641 9.02896484 0.55931641 11.03515625 0.68359375 C21.52034261 1.52034261 21.52034261 1.52034261 23 3 C23.125 6 23.125 6 23 9 C22 10 22 10 20.07421875 10.1328125 C19.28660156 10.13023437 18.49898438 10.12765625 17.6875 10.125 C16.51767578 10.12886719 16.51767578 10.12886719 15.32421875 10.1328125 C13.03159356 10.00180535 11.14663058 9.8245336 9 9 C8.67 8.01 8.34 7.02 8 6 C8.66 6 9.32 6 10 6 C10 5.01 10 4.02 10 3 C7.36 2.67 4.72 2.34 2 2 C0.48484483 5.03031033 0.35175359 8.2986971 -0.0625 11.625 C-0.15337891 12.33140625 -0.24425781 13.0378125 -0.33789062 13.765625 C-0.56183119 15.5100041 -0.78133818 17.25495134 -1 19 C-0.34 19.33 0.32 19.66 1 20 C0.34 20 -0.32 20 -1 20 C-1.33 21.98 -1.66 23.96 -2 26 C-2.33 26 -2.66 26 -3 26 C-2.50610812 17.21392344 -1.63177319 8.64998215 0 0 Z " fill="#1E1E1B" transform="translate(253,144)"/>
<path d="M0 0 C0 1.65 0 3.3 0 5 C1.5778125 4.9690625 1.5778125 4.9690625 3.1875 4.9375 C6.32704904 4.98896802 8.96883396 5.26517187 12 6 C11.625 8.9375 11.625 8.9375 11 12 C8.2780754 13.3609623 6.8168043 12.70366248 3.875 12.0625 C2.96492188 11.86785156 2.05484375 11.67320312 1.1171875 11.47265625 C0.41851562 11.31667969 -0.28015625 11.16070312 -1 11 C-1.04898437 11.71027344 -1.09796875 12.42054688 -1.1484375 13.15234375 C-1.22320312 14.07144531 -1.29796875 14.99054688 -1.375 15.9375 C-1.44460938 16.85402344 -1.51421875 17.77054688 -1.5859375 18.71484375 C-1.72257812 19.46894531 -1.85921875 20.22304687 -2 21 C-5.35661695 22.67830848 -8.36135594 21.6353188 -12 21 C-12.33 20.34 -12.66 19.68 -13 19 C-11.02 19 -9.04 19 -7 19 C-7 18.34 -7 17.68 -7 17 C-6.34 16.67 -5.68 16.34 -5 16 C-4.855625 15.071875 -4.71125 14.14375 -4.5625 13.1875 C-4 10 -4 10 -2.3125 7.9375 C-1.6628125 6.9784375 -1.6628125 6.9784375 -1 6 C-1.70957237 3.26601865 -1.70957237 3.26601865 -3 1 C-1 0 -1 0 0 0 Z " fill="#1C1A18" transform="translate(262,153)"/>
<path d="M0 0 C0.33 0 0.66 0 1 0 C1.25 2.25 1.25 2.25 1 5 C-1 7.3125 -1 7.3125 -3 9 C-2.67 9.99 -2.34 10.98 -2 12 C-0.68 11.34 0.64 10.68 2 10 C2 10.66 2 11.32 2 12 C3.98 11.34 5.96 10.68 8 10 C5.19668534 12.91337551 2.26810216 15.41523131 -0.9375 17.875 C-3.94538675 20.24055453 -6.61900887 22.50066192 -9 25.5 C-9.99 26.7375 -9.99 26.7375 -11 28 C-11.66 28 -12.32 28 -13 28 C-12.48479781 22.68528264 -11.1842149 18.74142728 -8.75 14 C-8.43788574 13.3920459 -8.12577148 12.7840918 -7.80419922 12.15771484 C-5.52532808 7.79970961 -3.09184383 3.8193365 0 0 Z " fill="#21272F" transform="translate(270,262)"/>
<path d="M0 0 C0 0.66 0 1.32 0 2 C-3.14753592 5.14753592 -4.56523436 6.29977385 -9 7 C-9 8.32 -9 9.64 -9 11 C-8.01 11.33 -7.02 11.66 -6 12 C-6.52956299 12.17128418 -7.05912598 12.34256836 -7.60473633 12.51904297 C-10.00889688 13.29961116 -12.41069278 14.08722189 -14.8125 14.875 C-15.64587891 15.14441406 -16.47925781 15.41382813 -17.33789062 15.69140625 C-18.14033203 15.95566406 -18.94277344 16.21992188 -19.76953125 16.4921875 C-20.87711792 16.85352783 -20.87711792 16.85352783 -22.00708008 17.22216797 C-24.26312595 18.02070642 -24.26312595 18.02070642 -27 20 C-27.99 19.67 -28.98 19.34 -30 19 C-23.42573873 12.31511414 -9.97348111 0 0 0 Z " fill="#1C1B17" transform="translate(297,270)"/>
<path d="M0 0 C2.94563014 0.3184465 4.61076606 0.66266392 6.875 2.625 C8.101804 5.21491955 8.37837122 7.02179742 7.859375 9.8515625 C5.89221128 14.76947179 2.26866065 18.88252997 -1 23 C-1.33 22.34 -1.66 21.68 -2 21 C-1.67 20.01 -1.34 19.02 -1 18 C-3.97 17.01 -6.94 16.02 -10 15 C-9.45276317 11.62537285 -8.9451 9.91765 -7 7 C-3.875 6.8125 -3.875 6.8125 -1 7 C-0.67 8.65 -0.34 10.3 0 12 C1.98 10.35 3.96 8.7 6 7 C4.19587357 3.73539027 3.16605307 2.11070205 0 0 Z M-6 8 C-7.485 10.475 -7.485 10.475 -9 13 C-7.02 13.99 -7.02 13.99 -5 15 C-3.43750191 13.68798827 -3.43750191 13.68798827 -2 12 C-2 11.01 -2 10.02 -2 9 C-3.32 8.67 -4.64 8.34 -6 8 Z " fill="#1C1B1A" transform="translate(178,191)"/>
<path d="M0 0 C-0.97227005 2.16891011 -1.7096918 3.7511644 -3.53125 5.3125 C-5.50346381 7.57844778 -5.49498773 9.22281102 -5.6875 12.1875 C-5.75324219 13.08855469 -5.81898438 13.98960937 -5.88671875 14.91796875 C-5.92410156 15.60503906 -5.96148437 16.29210937 -6 17 C-4.35 16.67 -2.7 16.34 -1 16 C-1 15.01 -1 14.02 -1 13 C-0.67 12.34 -0.34 11.68 0 11 C0.99 11.66 1.98 12.32 3 13 C4.9896995 13.39013716 6.99019869 13.73202649 9 14 C6.62709204 15.58193864 4.88037799 16.53089868 2.27734375 17.5078125 C1.57416016 17.77207031 0.87097656 18.03632813 0.14648438 18.30859375 C-0.58248047 18.57800781 -1.31144531 18.84742188 -2.0625 19.125 C-3.16174805 19.54072266 -3.16174805 19.54072266 -4.28320312 19.96484375 C-9.74203356 22 -9.74203356 22 -12 22 C-10.89345616 15.15689991 -9.55461821 8.04052768 -6 2 C-3.82471906 0.61188298 -2.5816076 0 0 0 Z " fill="#1E1D19" transform="translate(155,295)"/>
<path d="M0 0 C1.305239 3.91571701 0.32239848 5.03892997 -1.4375 8.6875 C-1.91058594 9.68136719 -2.38367188 10.67523438 -2.87109375 11.69921875 C-3.24363281 12.45847656 -3.61617188 13.21773437 -4 14 C-2.83404297 14.21462891 -2.83404297 14.21462891 -1.64453125 14.43359375 C0.87786006 14.97384004 2.75804088 15.75446715 5 17 C4.45276317 20.37462715 3.9451 22.08235 2 25 C-2.47238653 23.58192622 -6.71146306 21.88695626 -11 20 C-8 19 -8 19 -7 19 C-7 18.34 -7 17.68 -7 17 C-6.34 16.34 -5.68 15.68 -5 15 C-5.33 14.34 -5.66 13.68 -6 13 C-4.76101614 8.15669944 -2.54868879 4.24781465 0 0 Z " fill="#1C1A14" transform="translate(294,161)"/>
<path d="M0 0 C0.33 0.66 0.66 1.32 1 2 C0.34 2 -0.32 2 -1 2 C-1 2.66 -1 3.32 -1 4 C-1.969375 4.268125 -2.93875 4.53625 -3.9375 4.8125 C-4.948125 5.204375 -5.95875 5.59625 -7 6 C-7.33 6.99 -7.66 7.98 -8 9 C-7.34 9.33 -6.68 9.66 -6 10 C-6 10.66 -6 11.32 -6 12 C-4.02 12 -2.04 12 0 12 C0.33 13.32 0.66 14.64 1 16 C-5.6 13.69 -12.2 11.38 -19 9 C-18 6 -18 6 -16.23413086 5.10864258 C-15.48526611 4.87298584 -14.73640137 4.6373291 -13.96484375 4.39453125 C-13.15595703 4.13349609 -12.34707031 3.87246094 -11.51367188 3.60351562 C-10.66353516 3.34248047 -9.81339844 3.08144531 -8.9375 2.8125 C-7.65649414 2.40354492 -7.65649414 2.40354492 -6.34960938 1.98632812 C-4.23624531 1.31335745 -2.11996032 0.65183324 0 0 Z " fill="#1E1E1C" transform="translate(242,218)"/>
<path d="M0 0 C2.99531402 2.54601692 4.24004049 5.34468457 5.75 8.9375 C6.19859375 9.97777344 6.6471875 11.01804687 7.109375 12.08984375 C8.003224 15.01053455 8.10154037 16.21256554 7 19 C6.21625 18.01 5.4325 17.02 4.625 16 C0.64425248 11.32070784 -4.12907937 7.70613526 -9 4 C-8.01 3.67 -7.02 3.34 -6 3 C-5.34 3.33 -4.68 3.66 -4 4 C-4 4.66 -4 5.32 -4 6 C-2.68 6.33 -1.36 6.66 0 7 C0 4.69 0 2.38 0 0 Z " fill="#1E1D1D" transform="translate(235,272)"/>
<path d="M0 0 C0.66 0.33 1.32 0.66 2 1 C2.144375 1.639375 2.28875 2.27875 2.4375 2.9375 C2.86165035 5.38210855 2.86165035 5.38210855 6 7 C5.01 7.33 4.02 7.66 3 8 C1.78130071 10.50447516 1.78130071 10.50447516 1 13 C5.33273814 13.92844389 8.66726186 13.92844389 13 13 C10.67106405 15.14978703 9.22038995 15.96248682 6.0625 16.5 C1.92555599 15.82458057 0.62967791 14.19825691 -2 11 C-3.05287814 9.36622358 -4.0727001 7.70818403 -5 6 C-5.99 6.495 -5.99 6.495 -7 7 C-6.67 6.01 -6.34 5.02 -6 4 C-5.01 4 -4.02 4 -3 4 C-2.67 4.99 -2.34 5.98 -2 7 C-1.34 7 -0.68 7 0 7 C-0.185625 6.030625 -0.37125 5.06125 -0.5625 4.0625 C-0.706875 3.051875 -0.85125 2.04125 -1 1 C-0.67 0.67 -0.34 0.34 0 0 Z " fill="#1C1A16" transform="translate(329,196)"/>
<path d="M0 0 C3.12613393 2.96160056 5.04783565 5.09567131 7 9 C4.36 7.68 1.72 6.36 -1 5 C-1.08004482 8.5219721 -1.04005702 11.61981469 0 15 C-3.39417765 11.87378374 -5.6062718 9.43458973 -7 5 C-4.69 3.35 -2.38 1.7 0 0 Z " fill="#1E1C17" transform="translate(183,165)"/>
<path d="M0 0 C1.9375 1.6875 1.9375 1.6875 3 4 C3.1875 6.75 3.1875 6.75 3 9 C3.99 8.67 4.98 8.34 6 8 C5 10 4 12 3 14 C0.525 13.01 0.525 13.01 -2 12 C-1.34 11.67 -0.68 11.34 0 11 C0 8.36 0 5.72 0 3 C-2.29294488 2.14025199 -2.29294488 2.14025199 -5 2 C-7.10413616 3.85410577 -7.10413616 3.85410577 -9 6 C-11.25 6.75 -11.25 6.75 -13 7 C-9.65731056 0.95132387 -7.03316977 -0.7535539 0 0 Z " fill="#1B1916" transform="translate(171,183)"/>
<path d="M0 0 C0.33 0 0.66 0 1 0 C1.25 2.25 1.25 2.25 1 5 C-0.875 7.0625 -0.875 7.0625 -3 9 C-4.05021103 10.84971696 -4.05021103 10.84971696 -5 13 C-5.70252502 14.2117195 -6.41135842 15.41979411 -7.125 16.625 C-9.16188098 19.64790887 -9.16188098 19.64790887 -9 22 C-8.34 22.33 -7.68 22.66 -7 23 C-8.28062485 24.7074998 -9.61767557 26.37373596 -11 28 C-11.66 28 -12.32 28 -13 28 C-12.48479781 22.68528264 -11.1842149 18.74142728 -8.75 14 C-8.43788574 13.3920459 -8.12577148 12.7840918 -7.80419922 12.15771484 C-5.52532808 7.79970961 -3.09184383 3.8193365 0 0 Z " fill="#1D1A16" transform="translate(270,262)"/>
<path d="M0 0 C3.71888239 0.50712033 6.73454239 1.11608215 10 3 C9.25 7.75 9.25 7.75 7 10 C6.34 7.69 5.68 5.38 5 3 C3.68 3 2.36 3 1 3 C1.33 5.31 1.66 7.62 2 10 C0.02 10.66 -1.96 11.32 -4 12 C-3.33501617 7.61110675 -1.81242323 4.0188515 0 0 Z " fill="#1D190F" transform="translate(288,151)"/>
<path d="M0 0 C6 15.42857143 6 15.42857143 6 21 C4.02 21 2.04 21 0 21 C0.33 20.34 0.66 19.68 1 19 C1.66 19 2.32 19 3 19 C2.38332793 16.53929884 1.75711607 14.08173479 1.125 11.625 C0.95097656 10.92632812 0.77695312 10.22765625 0.59765625 9.5078125 C-0.44145274 5.35125264 -0.44145274 5.35125264 -3 2 C-6.08347826 1.83318891 -6.08347826 1.83318891 -9 2 C-5.5647952 -0.29013653 -4.014669 -0.17842973 0 0 Z " fill="#1B1711" transform="translate(326,262)"/>
<path d="M0 0 C3.59634744 3.49359465 6.83451967 7.11098131 10 11 C9.67 11.66 9.34 12.32 9 13 C7.62437146 11.71034824 6.29233607 10.37310707 5 9 C5 8.34 5 7.68 5 7 C4.34 7 3.68 7 3 7 C3 6.34 3 5.68 3 5 C2.34 5 1.68 5 1 5 C0.67 4.34 0.34 3.68 0 3 C-0.44730469 3.42152344 -0.89460938 3.84304687 -1.35546875 4.27734375 C-7.3602812 9.71880492 -7.3602812 9.71880492 -12 10 C-8.29909479 6.0747975 -4.45040344 3.05419844 0 0 Z " fill="#1A1612" transform="translate(335,180)"/>
<path d="M0 0 C2.8045156 1.4022578 3.0442118 3.06070622 4.1875 5.9375 C4.55230469 6.83339844 4.91710937 7.72929687 5.29296875 8.65234375 C6 11 6 11 5 13 C2.5 10.75 2.5 10.75 0 8 C0 6.68 0 5.36 0 4 C-4.10958767 5.45044271 -7.43258745 7.51110752 -11 10 C-11.66 9.67 -12.32 9.34 -13 9 C-8.71 6.03 -4.42 3.06 0 0 Z " fill="#15130C" transform="translate(297,239)"/>
<path d="M0 0 C0.66 0.99 1.32 1.98 2 3 C3.98 2.67 5.96 2.34 8 2 C8.33 2.66 8.66 3.32 9 4 C7.02 4.99 7.02 4.99 5 6 C5.7763932 9.0745356 5.7763932 9.0745356 8 11 C3.75177626 10.52797514 1.80010291 8.03344482 -1 5 C-1.99 6.485 -1.99 6.485 -3 8 C-3.66 8 -4.32 8 -5 8 C-3.62845496 5.04590299 -2.01136276 2.55991624 0 0 Z " fill="#1A1816" transform="translate(157,190)"/>
<path d="M0 0 C2 2 2 2 2 5 C1.21625 4.814375 0.4325 4.62875 -0.375 4.4375 C-2.97089775 3.74037734 -2.97089775 3.74037734 -5 5 C-5 4.34 -5 3.68 -5 3 C-8.3 3.66 -11.6 4.32 -15 5 C-15 4.34 -15 3.68 -15 3 C-9.76245717 0.79471881 -5.79028146 -0.57902815 0 0 Z " fill="#201D19" transform="translate(220,150)"/>
<path d="M0 0 C2 2 2 2 3 5 C3.99 5 4.98 5 6 5 C6.33 5.99 6.66 6.98 7 8 C6.01 8 5.02 8 4 8 C3.67 9.65 3.34 11.3 3 13 C1.68 12.67 0.36 12.34 -1 12 C-0.01 11.67 0.98 11.34 2 11 C1.67 8.69 1.34 6.38 1 4 C-0.65 4.66 -2.3 5.32 -4 6 C-3.67 4.68 -3.34 3.36 -3 2 C-2.34 2 -1.68 2 -1 2 C-0.67 1.34 -0.34 0.68 0 0 Z " fill="#1D1D19" transform="translate(336,189)"/>
<path d="M0 0 C0.144375 0.598125 0.28875 1.19625 0.4375 1.8125 C0.8872439 3.56150404 1.42892341 5.28677023 2 7 C-0.5654594 9.5654594 -2.47686668 9.54046087 -6 10 C-6.33 8.68 -6.66 7.36 -7 6 C-6.030625 5.38125 -5.06125 4.7625 -4.0625 4.125 C-0.97164638 2.34321154 -0.97164638 2.34321154 0 0 Z " fill="#26272A" transform="translate(165,184)"/>
<path d="M0 0 C7.91906475 7.70503597 7.91906475 7.70503597 8.125 11 C6.28151168 14.27731256 3.3066741 15.31660227 0 17 C-0.99 15.35 -1.98 13.7 -3 12 C-2.071875 12.226875 -1.14375 12.45375 -0.1875 12.6875 C0.864375 12.790625 1.91625 12.89375 3 13 C4.70630794 11.58587821 4.70630794 11.58587821 6 10 C5.566875 9.44570312 5.13375 8.89140625 4.6875 8.3203125 C3.8521875 7.23363281 3.8521875 7.23363281 3 6.125 C2.1646875 5.04605469 2.1646875 5.04605469 1.3125 3.9453125 C0 2 0 2 0 0 Z " fill="#191510" transform="translate(193,178)"/>
<path d="M0 0 C3.465 1.98 3.465 1.98 7 4 C4 6 4 6 2.0625 6.375 C-0.72985962 7.22116958 -2.07372555 8.86733901 -4 11 C-3.39301257 6.87248551 -1.96189209 3.6678852 0 0 Z " fill="#1A1916" transform="translate(202,239)"/>
<path d="M0 0 C0.66 0.33 1.32 0.66 2 1 C-1.63 5.95 -5.26 10.9 -9 16 C-10.65 15.01 -12.3 14.02 -14 13 C-13.443125 12.938125 -12.88625 12.87625 -12.3125 12.8125 C-8.3911413 11.43472532 -5.79860353 8.50847333 -3.875 4.875 C-3.441875 3.946875 -3.441875 3.946875 -3 3 C-1.375 1.25 -1.375 1.25 0 0 Z " fill="#191513" transform="translate(317,179)"/>
<path d="M0 0 C1.98 0.66 3.96 1.32 6 2 C5.67 3.65 5.34 5.3 5 7 C3.35 7.33 1.7 7.66 0 8 C-0.79953138 4.71303767 -1.09658936 3.28976808 0 0 Z " fill="#23282C" transform="translate(182,170)"/>
<path d="M0 0 C2.02196167 2.02196167 2.67551358 3.25864486 3.6875 5.875 C3.95949219 6.55304688 4.23148438 7.23109375 4.51171875 7.9296875 C5.07336741 10.31107782 4.76694846 11.70430191 4 14 C3.59007812 13.51789063 3.18015625 13.03578125 2.7578125 12.5390625 C2.21898437 11.90742188 1.68015625 11.27578125 1.125 10.625 C0.59132812 9.99851562 0.05765625 9.37203125 -0.4921875 8.7265625 C-1.61432007 7.44163349 -2.79371975 6.20628025 -4 5 C-1.525 5.495 -1.525 5.495 1 6 C0.67 4.02 0.34 2.04 0 0 Z " fill="#141614" transform="translate(238,277)"/>
<path d="M0 0 C2.99220268 1.36370299 5.29026529 2.94908083 7.75 5.125 C8.67039063 5.93324219 8.67039063 5.93324219 9.609375 6.7578125 C10.06828125 7.16773438 10.5271875 7.57765625 11 8 C8 9 8 9 5.95703125 8.22265625 C5.24933594 7.83980469 4.54164063 7.45695312 3.8125 7.0625 C3.09707031 6.68222656 2.38164062 6.30195313 1.64453125 5.91015625 C1.10183594 5.60980469 0.55914062 5.30945313 0 5 C0 3.35 0 1.7 0 0 Z " fill="#17130E" transform="translate(222,281)"/>
<path d="M0 0 C0 0.66 0 1.32 0 2 C-0.71285156 2.18175781 -1.42570312 2.36351562 -2.16015625 2.55078125 C-8.7147327 4.26257127 -8.7147327 4.26257127 -15 6.75 C-18 8 -18 8 -21 7 C-7.72137405 0 -7.72137405 0 0 0 Z " fill="#1B1812" transform="translate(292,288)"/>
<path d="M0 0 C6.64158484 0.5903631 15.33984837 1.89080568 19.828125 7.13671875 C20.40820312 8.05904297 20.40820312 8.05904297 21 9 C16.28562282 7.48728707 11.71041415 5.73227046 7.125 3.875 C6.43664062 3.59785156 5.74828125 3.32070313 5.0390625 3.03515625 C3.35873499 2.35835767 1.67927658 1.67940197 0 1 C0 0.67 0 0.34 0 0 Z " fill="#1A1813" transform="translate(195,260)"/>
<path d="M0 0 C4.46182436 1.31074365 7.99618757 3.07066011 11.875 5.625 C12.84179688 6.25664062 13.80859375 6.88828125 14.8046875 7.5390625 C15.52914062 8.02117187 16.25359375 8.50328125 17 9 C15 10 15 10 11.9375 9.1875 C9 8 9 8 8 6 C5.98330173 4.86649466 5.98330173 4.86649466 4 4 C4 3.34 4 2.68 4 2 C2.68 1.67 1.36 1.34 0 1 C0 0.67 0 0.34 0 0 Z " fill="#1B1614" transform="translate(221,292)"/>
<path d="M0 0 C0.33 0.66 0.66 1.32 1 2 C2.98 1.34 4.96 0.68 7 0 C4.17589976 2.92869654 1.27847819 5.58427923 -2 8 C-2.66 8 -3.32 8 -4 8 C-3.67 5.69 -3.34 3.38 -3 1 C-2.01 0.67 -1.02 0.34 0 0 Z " fill="#1F1F1B" transform="translate(271,272)"/>
<path d="M0 0 C1.8871875 0.061875 1.8871875 0.061875 3.8125 0.125 C3.8125 1.445 3.8125 2.765 3.8125 4.125 C-3.61607143 4.41071429 -3.61607143 4.41071429 -7.1875 2.125 C-4.09861478 0.06574319 -3.47814073 -0.1140374 0 0 Z " fill="#242729" transform="translate(268.1875,159.875)"/>
<path d="M0 0 C0.33 0.66 0.66 1.32 1 2 C-1.64 3.98 -4.28 5.96 -7 8 C-6.01 9.32 -5.02 10.64 -4 12 C-4.66 12.66 -5.32 13.32 -6 14 C-7.32 12.02 -8.64 10.04 -10 8 C-6.7 5.36 -3.4 2.72 0 0 Z " fill="#1A1512" transform="translate(322,190)"/>
<path d="M0 0 C0.66 0.33 1.32 0.66 2 1 C-2.27146892 5.51555286 -6.49269716 8.2638136 -12 11 C-8.38748484 6.43951988 -5.01202555 2.98334854 0 0 Z " fill="#1D1B15" transform="translate(269,296)"/>
<path d="M0 0 C1.09658936 3.28976808 0.79953138 4.71303767 0 8 C0.66 8.33 1.32 8.66 2 9 C0.71937515 10.7074998 -0.61767557 12.37373596 -2 14 C-2.66 14 -3.32 14 -4 14 C-3.46148032 8.72250715 -2.22656164 4.74354436 0 0 Z " fill="#14100A" transform="translate(261,276)"/>
<path d="M0 0 C3.92488093 3.70060202 7.02215543 7.4906925 10 12 C10 12.66 10 13.32 10 14 C9.01 13.67 8.02 13.34 7 13 C6.525625 12.030625 6.05125 11.06125 5.5625 10.0625 C3.94789981 6.89788363 3.26336918 6.12529972 0 5 C0 3.35 0 1.7 0 0 Z " fill="#1A1812" transform="translate(225,258)"/>
<path d="M0 0 C0.33 0.66 0.66 1.32 1 2 C0.67 2.66 0.34 3.32 0 4 C1.32 4.33 2.64 4.66 4 5 C4 5.66 4 6.32 4 7 C5.65 7.33 7.3 7.66 9 8 C9.33 9.32 9.66 10.64 10 12 C5.18966896 9.45335415 1.67557852 7.00972202 -2 3 C-1.34 2.01 -0.68 1.02 0 0 Z " fill="#1E1912" transform="translate(151,198)"/>
<path d="M0 0 C1.65 0.33 3.3 0.66 5 1 C4.67 2.32 4.34 3.64 4 5 C2.5199159 4.88637738 1.04089926 4.75877092 -0.4375 4.625 C-1.26121094 4.55539063 -2.08492187 4.48578125 -2.93359375 4.4140625 C-3.61550781 4.27742187 -4.29742187 4.14078125 -5 4 C-5.33 3.34 -5.66 2.68 -6 2 C-4.02 2 -2.04 2 0 2 C0 1.34 0 0.68 0 0 Z " fill="#1D1A16" transform="translate(255,170)"/>
<path d="M0 0 C6.625 -0.25 6.625 -0.25 10 2 C8.948125 2.103125 7.89625 2.20625 6.8125 2.3125 C3.12569246 2.97733415 1.03361401 3.88566296 -2 6 C-2.33 5.34 -2.66 4.68 -3 4 C-2.34 3.34 -1.68 2.68 -1 2 C-0.67 1.34 -0.34 0.68 0 0 Z " fill="#1E201E" transform="translate(323,289)"/>
<path d="M0 0 C1.5 1 1.5 1 3 3 C3.39932738 6.09478718 3.64490868 8.04032979 3 11 C0.5 14 0.5 14 -2 16 C-2.33 15.34 -2.66 14.68 -3 14 C-2.34 14 -1.68 14 -1 14 C-0.01 11.03 0.98 8.06 2 5 C1.01 4.67 0.02 4.34 -1 4 C-0.67 2.68 -0.34 1.36 0 0 Z " fill="#191613" transform="translate(345,193)"/>
<path d="M0 0 C-1.93232821 0.86580287 -3.87107194 1.71729941 -5.8125 2.5625 C-6.89144531 3.03816406 -7.97039062 3.51382813 -9.08203125 4.00390625 C-12 5 -12 5 -15 4 C-12.83900627 1.83900627 -11.4789582 1.28436284 -8.625 0.3125 C-7.46871094 -0.09548828 -7.46871094 -0.09548828 -6.2890625 -0.51171875 C-3.79944692 -1.04278009 -2.38446982 -0.81115526 0 0 Z " fill="#1F1D17" transform="translate(225,178)"/>
<path d="M0 0 C4.571279 0.54855348 8.67435795 1.41744803 13 3 C13.33 2.01 13.66 1.02 14 0 C14.33 1.98 14.66 3.96 15 6 C10 4.33333333 5 2.66666667 0 1 C0 0.67 0 0.34 0 0 Z " fill="#18140D" transform="translate(342,311)"/>
<path d="M0 0 C1.305239 3.91571701 0.32239848 5.03892997 -1.4375 8.6875 C-1.91058594 9.68136719 -2.38367188 10.67523438 -2.87109375 11.69921875 C-3.42990234 12.83810547 -3.42990234 12.83810547 -4 14 C-3.01 14.33 -2.02 14.66 -1 15 C-1.99 15.495 -1.99 15.495 -3 16 C-3.99 15.01 -4.98 14.02 -6 13 C-4.58707905 8.1725201 -2.57025846 4.2837641 0 0 Z " fill="#181611" transform="translate(294,161)"/>
<path d="M0 0 C0.99 0.33 1.98 0.66 3 1 C3.33 3.31 3.66 5.62 4 8 C3.01 7.01 2.02 6.02 1 5 C0.01 5.99 -0.98 6.98 -2 8 C-1.125 1.125 -1.125 1.125 0 0 Z " fill="#191611" transform="translate(249,199)"/>
<path d="M0 0 C1.65 0 3.3 0 5 0 C5.12375 0.639375 5.2475 1.27875 5.375 1.9375 C5.684375 2.9584375 5.684375 2.9584375 6 4 C6.66 4.33 7.32 4.66 8 5 C7.01 5.33 6.02 5.66 5 6 C5 5.34 5 4.68 5 4 C3.35 3.67 1.7 3.34 0 3 C0 2.01 0 1.02 0 0 Z " fill="#222422" transform="translate(216,279)"/>
<path d="M0 0 C0.86625 0.556875 0.86625 0.556875 1.75 1.125 C-1.01223278 3.88723278 -3.45706617 3.70356291 -7.25 4.125 C-6.25 1.125 -6.25 1.125 -4.4375 -0.1875 C-2.25 -0.875 -2.25 -0.875 0 0 Z " fill="#242729" transform="translate(285.25,278.875)"/>
<path d="M0 0 C1.98 0 3.96 0 6 0 C5.67 1.98 5.34 3.96 5 6 C4.34 6 3.68 6 3 6 C3 5.34 3 4.68 3 4 C2.01 3.67 1.02 3.34 0 3 C0 2.01 0 1.02 0 0 Z " fill="#24272C" transform="translate(291,178)"/>
<path d="M0 0 C1.65 0 3.3 0 5 0 C5 0.66 5 1.32 5 2 C4.34 2 3.68 2 3 2 C3.33 3.32 3.66 4.64 4 6 C2.35 6 0.7 6 -1 6 C-0.67 4.02 -0.34 2.04 0 0 Z " fill="#25272E" transform="translate(280,172)"/>
<path d="M0 0 C0.99 0.33 1.98 0.66 3 1 C2.67 2.32 2.34 3.64 2 5 C0.35 5.33 -1.3 5.66 -3 6 C-2.625 3.5625 -2.625 3.5625 -2 1 C-1.34 0.67 -0.68 0.34 0 0 Z " fill="#1E211F" transform="translate(287,157)"/>
<path d="M0 0 C0.99 0.33 1.98 0.66 3 1 C2 4 2 4 -0.375 5.75 C-3 7 -3 7 -6 6 C-4.02 4.02 -2.04 2.04 0 0 Z " fill="#171610" transform="translate(273,283)"/>
<path d="M0 0 C5.23880078 0.55145271 9.97350697 1.42922093 15 3 C14.67 3.99 14.34 4.98 14 6 C12.989375 5.54625 11.97875 5.0925 10.9375 4.625 C7.35276996 3.08137135 3.76997331 2.000197 0 1 C0 0.67 0 0.34 0 0 Z " fill="#1C1812" transform="translate(228,228)"/>
<path d="M0 0 C0.66 1.32 1.32 2.64 2 4 C2.99 3.67 3.98 3.34 5 3 C5 6.3 5 9.6 5 13 C2.94876752 10.94876752 2.35852882 9.72994937 1.375 7.0625 C0.98441406 6.02802734 0.98441406 6.02802734 0.5859375 4.97265625 C0 3 0 3 0 0 Z " fill="#1A1917" transform="translate(201,171)"/>
<path d="M0 0 C4.571279 0.54855348 8.67435795 1.41744803 13 3 C8.91556885 4.53166168 5.20544343 3.63081652 1 3 C0.67 2.01 0.34 1.02 0 0 Z " fill="#1E1A15" transform="translate(208,288)"/>
<path d="M0 0 C2.64 0.33 5.28 0.66 8 1 C8 1.99 8 2.98 8 4 C8.66 4 9.32 4 10 4 C10 4.66 10 5.32 10 6 C6.00499382 4.6302836 3.19990508 2.74277578 0 0 Z " fill="#1B1B18" transform="translate(216,269)"/>
<path d="M0 0 C3.8665284 3.222107 4.88059018 6.14922412 6 11 C1.77202073 8.00518135 1.77202073 8.00518135 0 6 C-0.375 2.6875 -0.375 2.6875 0 0 Z " fill="#1B1A19" transform="translate(297,241)"/>
<path d="M0 0 C0.33 1.32 0.66 2.64 1 4 C-0.1875 5.8125 -0.1875 5.8125 -2 7 C-3.32 6.67 -4.64 6.34 -6 6 C-4.02 4.02 -2.04 2.04 0 0 Z " fill="#221E19" transform="translate(283,249)"/>
<path d="M0 0 C2.97 0.495 2.97 0.495 6 1 C3.53846154 4.81538462 3.53846154 4.81538462 0.8125 5.75 C0.214375 5.8325 -0.38375 5.915 -1 6 C-0.67 4.02 -0.34 2.04 0 0 Z " fill="#20201F" transform="translate(261,279)"/>
<path d="M0 0 C1.46015291 0.28241641 2.91809793 0.57626614 4.375 0.875 C5.18710938 1.03742188 5.99921875 1.19984375 6.8359375 1.3671875 C9 2 9 2 11 4 C9.02 4.66 7.04 5.32 5 6 C4.67 5.01 4.34 4.02 4 3 C2.00334686 1.31461399 2.00334686 1.31461399 0 0 Z " fill="#191713" transform="translate(191,266)"/>
<path d="M0 0 C3.79303725 1.00193437 6.71536341 1.81024227 10 4 C8.02 4.99 8.02 4.99 6 6 C3.97945196 4.35830472 1.97956942 2.69088222 0 1 C0 0.67 0 0.34 0 0 Z " fill="#211B13" transform="translate(165,213)"/>
<path d="M0 0 C1.98 0.495 1.98 0.495 4 1 C4 2.32 4 3.64 4 5 C2.35 4.67 0.7 4.34 -1 4 C-0.67 2.68 -0.34 1.36 0 0 Z " fill="#21292D" transform="translate(168,185)"/>
<path d="M0 0 C2.475 0.99 2.475 0.99 5 2 C5 3.65 5 5.3 5 7 C3.68 7 2.36 7 1 7 C1.20625 6.401875 1.4125 5.80375 1.625 5.1875 C2.30671915 2.71549154 2.30671915 2.71549154 0 0 Z " fill="#262829" transform="translate(217,153)"/>
<path d="M0 0 C3.95820859 0.56545837 6.6659053 1.80902348 10 4 C9.67 4.66 9.34 5.32 9 6 C7.68397477 5.38245741 6.37226444 4.75571258 5.0625 4.125 C4.33160156 3.77695312 3.60070312 3.42890625 2.84765625 3.0703125 C1 2 1 2 0 0 Z " fill="#1B1813" transform="translate(342,294)"/>
<path d="M0 0 C2.76223278 2.76223278 2.57856291 5.20706617 3 9 C0.9375 7.3125 0.9375 7.3125 -1 5 C-0.75 2.25 -0.75 2.25 0 0 Z " fill="#111107" transform="translate(240,282)"/>
<path d="M0 0 C1 3 1 3 0 6 C0.99 5.67 1.98 5.34 3 5 C3.33 5.99 3.66 6.98 4 8 C2.02 7.34 0.04 6.68 -2 6 C-1.34 4.02 -0.68 2.04 0 0 Z " fill="#18160F" transform="translate(279,172)"/>
<path d="M0 0 C3 1 3 1 3 1 Z " fill="#000000" transform="translate(259,143)"/>
<path d="M0 0 C2 1 2 1 2 1 Z " fill="#000000" transform="translate(176,189)"/>
<path d="" fill="#170000" transform="translate(0,0)"/>
<path d="" fill="#000000" transform="translate(0,0)"/>
</svg>
